<svg xmlns="http://www.w3.org/2000/svg" width="358.321" height="609.178"><path fill="#FFF" d="M271.638 85.087L279.769 71l29.297 16.91-8.131 14.086-29.297-16.909zm-58.594-33.819l8.13-14.086 29.297 16.909-8.131 14.086-29.296-16.909zM59.756 270.439l8.079 14.111a3.311 3.311 0 0 0 4.519 1.229l12.001-6.87a3.31 3.31 0 0 0 1.229-4.521l-8.079-14.111a3.311 3.311 0 0 0-4.519-1.229l-12.001 6.87a3.313 3.313 0 0 0-1.229 4.521M298.563 152.472l-8.079-14.112a3.314 3.314 0 0 0-4.52-1.229l-12 6.869a3.312 3.312 0 0 0-1.228 4.52l8.079 14.112a3.31 3.31 0 0 0 4.519 1.228l11.999-6.868a3.311 3.311 0 0 0 1.23-4.52M296.962 266.718l-11.953-6.95a3.31 3.31 0 0 0-4.526 1.198l-8.175 14.057a3.31 3.31 0 0 0 1.197 4.527l11.953 6.951a3.313 3.313 0 0 0 4.528-1.198l8.174-14.058a3.31 3.31 0 0 0-1.198-4.527M61.355 156.193l11.954 6.951a3.311 3.311 0 0 0 4.527-1.198l8.174-14.059a3.308 3.308 0 0 0-1.197-4.526l-11.954-6.951a3.312 3.312 0 0 0-4.528 1.198l-8.174 14.057a3.312 3.312 0 0 0 1.198 4.528M179.159 122.12c-49.26 0-89.335 40.074-89.335 89.335 0 49.26 40.075 89.336 89.335 89.336s89.336-40.076 89.336-89.336c0-49.261-40.076-89.335-89.336-89.335m-5.956 65.45c0 .578-.25 1.103-.667 1.404l-30.304 21.899c-.155.112-.253.339-.254.592 0 .255.098.483.255.597l30.301 21.874c.418.301.669.826.669 1.404v15.893c0 .667-.324 1.247-.847 1.515a1.259 1.259 0 0 1-.571.139c-.263 0-.523-.084-.752-.249l-55.076-39.758c-.418-.3-.668-.824-.669-1.4 0-.579.249-1.104.668-1.409l55.075-39.802a1.25 1.25 0 0 1 1.323-.109c.523.267.849.847.849 1.514v15.896zm69.159 25.31l-55.121 39.792a1.245 1.245 0 0 1-1.323.11c-.522-.268-.847-.848-.847-1.514v-15.894c0-.578.25-1.103.67-1.404l30.347-21.906c.156-.111.253-.339.253-.592 0-.255-.097-.482-.254-.597l-30.347-21.933c-.417-.3-.667-.824-.667-1.402v-15.898c0-.667.324-1.246.846-1.513.429-.22.926-.179 1.325.108l55.122 39.835c.417.303.665.827.664 1.404s-.251 1.103-.668 1.404"/><path fill="#E13F26" d="M179.159 378.022c-12.376 0-22.444 10.067-22.444 22.443 0 12.375 10.068 22.444 22.444 22.444 12.375 0 22.443-10.069 22.443-22.444.001-12.375-10.068-22.443-22.443-22.443"/><path fill="#12A1D3" d="M335.877 283.518c-12.375 0-22.444 10.067-22.444 22.443 0 12.375 10.069 22.444 22.444 22.444s22.444-10.069 22.444-22.444c0-12.376-10.069-22.443-22.444-22.443"/><path fill="#F5AA1C" d="M22.444 283.518C10.069 283.518 0 293.585 0 305.961c0 12.375 10.069 22.444 22.444 22.444s22.444-10.069 22.444-22.444c.001-12.376-10.069-22.443-22.444-22.443"/><path fill="#243E96" d="M179.159 44.889c12.375 0 22.443-10.068 22.443-22.444C201.603 10.069 191.534 0 179.159 0c-12.376 0-22.444 10.069-22.444 22.444 0 12.376 10.068 22.445 22.444 22.445"/><path fill="#20AA52" d="M22.444 94.506C10.069 94.506 0 104.574 0 116.95c0 12.375 10.069 22.443 22.444 22.443s22.444-10.068 22.444-22.443c.001-12.376-10.069-22.444-22.444-22.444"/><path fill="#C61B75" d="M335.877 139.394c12.375 0 22.444-10.068 22.444-22.444 0-12.375-10.069-22.443-22.444-22.443s-22.444 10.068-22.444 22.443c0 12.375 10.069 22.444 22.444 22.444"/><path fill="#FFF" d="M187.289 323.933h-16.26a3.313 3.313 0 0 0-3.313 3.313v13.827a3.312 3.312 0 0 0 3.313 3.312h16.26a3.312 3.312 0 0 0 3.312-3.312v-13.827a3.312 3.312 0 0 0-3.312-3.313M171.028 98.978h16.26a3.313 3.313 0 0 0 3.313-3.312V81.839a3.313 3.313 0 0 0-3.313-3.313h-16.26a3.312 3.312 0 0 0-3.312 3.313v13.827a3.313 3.313 0 0 0 3.312 3.312M137.036 37.269l8.13 14.086-29.297 16.91-8.131-14.087 29.298-16.909zM78.441 71.088l8.13 14.086-29.296 16.909-8.131-14.086 29.297-16.909zM300.936 320.798l8.13 14.086-29.297 16.91-8.131-14.087 29.298-16.909zm-58.595 33.818l8.13 14.086-29.296 16.909-8.131-14.086 29.297-16.909zM107.738 368.616l8.13-14.087 29.299 16.909-8.132 14.087-29.297-16.909zm-58.593-33.819l8.13-14.086 29.297 16.909-8.131 14.086-29.296-16.909zM30.576 262.196H14.313v-33.827h16.264v33.827zm0-67.655H14.313v-33.826h16.264v33.826zM344.009 262.196h-16.264V228.37h16.264v33.826zm0-67.654h-16.264v-33.827h16.264v33.827z"/><g fill="#FFF"><path d="M10.672 503.373v27.722c0 .842-3.559 1.498-4.121 1.498-4.308 0-4.308-1.498-4.308-1.498v-63.218s0-1.31 4.215-1.31h36.899s1.311 0 1.311 3.745c0 3.466-1.311 3.466-1.311 3.466H10.672v22.664h28.752s1.311 0 1.311 3.56c0 3.371-1.311 3.371-1.311 3.371H10.672zM59.463 496.911s0-11.895 16.671-11.895c8.241 0 11.52.75 11.52.75s1.217.468 1.217 3.277c0 2.997-1.217 2.997-1.217 2.997s-2.997-.656-10.021-.656c-10.021 0-10.021 5.526-10.021 5.526v34.37s0 1.312-4.121 1.312c-4.027 0-4.027-1.312-4.027-1.312v-34.369zM99.828 506.276c0-12.924 9.553-21.634 22.103-21.634 12.643 0 22.195 8.71 22.195 21.634v4.87c0 12.924-9.365 21.634-22.195 21.634-12.737 0-22.103-8.71-22.103-21.634v-4.87zm8.148 5.807c0 8.99 5.9 14.141 13.955 14.141 8.147 0 14.048-5.15 14.048-14.141v-6.743c0-8.991-6.088-14.142-14.048-14.142-7.867 0-13.955 5.15-13.955 14.142v6.743zM202.938 531.281s0 1.312-4.121 1.312c-4.027 0-4.027-1.312-4.027-1.312v-29.313s0-10.77-11.332-10.77h-13.673v40.083s0 1.312-4.121 1.312c-4.027 0-4.027-1.312-4.027-1.312v-44.485s1.779-1.967 21.821-1.967c19.48 0 19.48 17.139 19.48 17.139v29.313zM233.655 491.665v29.315s0 4.775 5.432 4.775h4.683s1.03 0 1.03 3.185-1.03 3.185-1.03 3.185h-4.683c-13.485 0-13.485-10.115-13.485-10.115v-30.345h-8.616s-1.313 0-1.313-3.183c0-3.185 1.313-3.185 1.313-3.185h8.616v-11.8s0-.938 4.026-.938c4.027 0 4.027.938 4.027.938v11.8h9.832s1.313 0 1.313 3.185c0 3.183-1.313 3.183-1.313 3.183h-9.832zM291.343 465.068c3.467 0 4.496 1.124 4.496 5.338 0 4.401-1.029 5.245-4.496 5.245-3.371 0-4.4-.844-4.4-5.245-.001-4.214 1.029-5.338 4.4-5.338zm-4.028 21.073s0-1.312 4.027-1.312c4.121 0 4.121 1.312 4.121 1.312v45.141s0 1.312-4.121 1.312c-4.027 0-4.027-1.312-4.027-1.312v-45.141zM358.116 531.281s0 1.312-4.121 1.312c-4.024 0-4.024-1.312-4.024-1.312v-29.313s0-10.77-11.333-10.77h-13.675v40.083s0 1.312-4.118 1.312c-4.028 0-4.028-1.312-4.028-1.312v-44.485s1.78-1.967 21.821-1.967c19.479 0 19.479 17.139 19.479 17.139v29.313z"/></g><g fill="#FFF"><path d="M1.886 582.988c0-3.971.521-7.56 1.565-10.766 1.043-3.207 2.507-5.942 4.391-8.208a18.722 18.722 0 0 1 6.833-5.192c2.673-1.195 5.612-1.794 8.819-1.794 2.9 0 5.459.611 7.673 1.832 2.215 1.222 4.009 2.623 5.383 4.2l-2.138 2.29a15.71 15.71 0 0 0-4.734-3.703c-1.832-.941-3.894-1.412-6.184-1.412-2.749 0-5.23.534-7.444 1.604a15.986 15.986 0 0 0-5.65 4.543c-1.554 1.96-2.749 4.34-3.589 7.139-.84 2.801-1.26 5.956-1.26 9.468 0 3.513.42 6.681 1.26 9.506.84 2.826 2.023 5.23 3.55 7.216 1.527 1.984 3.386 3.525 5.574 4.619 2.188 1.096 4.632 1.642 7.33 1.642 2.597 0 4.887-.509 6.872-1.527 1.985-1.018 3.894-2.57 5.726-4.657L37.925 602c-1.936 2.241-4.085 3.997-6.452 5.269s-5.181 1.909-8.438 1.909c-3.104 0-5.955-.611-8.551-1.833-2.597-1.221-4.824-2.965-6.682-5.23-1.858-2.264-3.309-5.013-4.352-8.245-1.043-3.233-1.564-6.86-1.564-10.882zM75.031 591.005H55.104l-5.956 17.257h-3.512l17.714-50.316h3.512l17.714 50.316h-3.741l-5.804-17.257zm-.992-2.978l-3.207-9.392a1655.63 1655.63 0 0 1-2.901-8.627 181.797 181.797 0 0 1-2.672-8.78h-.306a186.386 186.386 0 0 1-2.673 8.78c-.916 2.748-1.884 5.625-2.901 8.627l-3.207 9.392h17.867zM94.959 557.945h4.505l8.398 23.439 2.979 8.934h.305l2.901-8.934 8.322-23.439h4.506v50.316h-3.283v-35.199c0-1.68.038-3.55.114-5.612.076-2.062.164-3.957.267-5.688h-.229l-2.901 9.01-8.704 23.745h-2.444l-8.78-23.745-3.054-9.01h-.152c.101 1.73.202 3.626.305 5.688.102 2.063.153 3.933.153 5.612v35.199H94.96v-50.316zM142.831 557.945h13.744c2.799 0 5.307.241 7.521.725 2.215.484 4.098 1.286 5.65 2.405 1.552 1.12 2.735 2.571 3.55 4.352.814 1.782 1.222 3.971 1.222 6.566 0 4.938-1.578 8.617-4.733 11.033-3.157 2.418-7.56 3.627-13.209 3.627h-10.231v21.608h-3.513v-50.316zm12.827 25.731c5.192 0 9.022-.916 11.491-2.748 2.469-1.833 3.704-4.812 3.704-8.935 0-2.138-.318-3.905-.955-5.306a8.19 8.19 0 0 0-2.825-3.398c-1.247-.865-2.824-1.476-4.733-1.832-1.909-.355-4.137-.534-6.682-.534h-9.314v22.753h9.314zM187.803 605.207h12.979v-44.208h-12.979v-3.054h29.472v3.054h-12.98v44.208h12.98v3.055h-29.472v-3.055zM232.469 557.945h3.665l19.622 35.58 5.422 9.926h.152l-.305-7.292a169.634 169.634 0 0 1-.153-7.292v-30.922h3.359v50.316h-3.665l-19.622-35.581-5.421-9.926h-.153c.102 2.443.203 4.836.306 7.177.102 2.342.153 4.734.153 7.178v31.152h-3.36v-50.316zM304.088 591.005h-19.929l-5.955 17.257h-3.513l17.714-50.316h3.512l17.715 50.316h-3.741l-5.803-17.257zm-.993-2.978l-3.207-9.392a1755.444 1755.444 0 0 1-2.901-8.627 184.078 184.078 0 0 1-2.672-8.78h-.306a186.417 186.417 0 0 1-2.672 8.78c-.917 2.748-1.884 5.625-2.901 8.627l-3.207 9.392h17.866zM325.158 599.176c1.935 2.088 4.225 3.741 6.872 4.962 2.646 1.223 5.523 1.833 8.629 1.833 4.122 0 7.368-.928 9.734-2.787 2.367-1.857 3.55-4.288 3.55-7.291 0-1.577-.267-2.901-.801-3.971a9.194 9.194 0 0 0-2.138-2.787c-.892-.789-1.936-1.476-3.131-2.062a79.03 79.03 0 0 0-3.779-1.718l-7.636-3.437a37.893 37.893 0 0 1-3.665-1.679 16.006 16.006 0 0 1-3.512-2.482c-1.068-.992-1.96-2.163-2.673-3.512s-1.069-2.965-1.069-4.849c0-1.832.383-3.498 1.146-5.001.764-1.501 1.832-2.799 3.206-3.895 1.375-1.093 3.003-1.946 4.887-2.557 1.883-.611 3.919-.917 6.109-.917 3.206 0 6.069.599 8.589 1.794 2.52 1.196 4.593 2.609 6.223 4.238l-2.061 2.366c-1.58-1.577-3.425-2.837-5.536-3.779-2.113-.941-4.519-1.412-7.215-1.412-3.564 0-6.428.815-8.591 2.442-2.164 1.63-3.245 3.818-3.245 6.566 0 1.478.306 2.725.917 3.742a9.589 9.589 0 0 0 2.328 2.635 17.11 17.11 0 0 0 3.055 1.908 46.407 46.407 0 0 0 3.168 1.412l7.56 3.359a38.316 38.316 0 0 1 4.353 2.062 16.993 16.993 0 0 1 3.626 2.673 11.36 11.36 0 0 1 2.481 3.627c.61 1.4.916 3.066.916 5.001 0 1.936-.395 3.729-1.184 5.383-.789 1.654-1.921 3.08-3.396 4.275-1.478 1.197-3.246 2.139-5.308 2.826-2.061.687-4.365 1.03-6.909 1.03-3.869 0-7.28-.7-10.231-2.1-2.953-1.399-5.473-3.219-7.56-5.46l2.291-2.438z"/></g></svg>