<?xml version="1.0" encoding="UTF-8" standalone="no"?>
<svg
   xmlns:dc="http://purl.org/dc/elements/1.1/"
   xmlns:cc="http://creativecommons.org/ns#"
   xmlns:rdf="http://www.w3.org/1999/02/22-rdf-syntax-ns#"
   xmlns:svg="http://www.w3.org/2000/svg"
   xmlns="http://www.w3.org/2000/svg"
   viewBox="0 0 1706.6667 1066.6667"
   height="1066.6667"
   width="1706.6667"
   xml:space="preserve"
   id="svg2"
   version="1.1"><metadata
     id="metadata8"><rdf:RDF><cc:Work
         rdf:about=""><dc:format>image/svg+xml</dc:format><dc:type
           rdf:resource="http://purl.org/dc/dcmitype/StillImage" /></cc:Work></rdf:RDF></metadata><defs
     id="defs6" /><g
     transform="matrix(1.3333333,0,0,-1.3333333,0,1066.6667)"
     id="g10"><g
       transform="scale(0.1)"
       id="g12"><path
         id="path14"
         style="fill:#000000;fill-opacity:1;fill-rule:nonzero;stroke:none"
         d="M 0,0 H 6400 V 8000 H 0 Z" /><path
         id="path16"
         style="fill:#ff685c;fill-opacity:1;fill-rule:nonzero;stroke:none"
         d="M 3417.47,4850 H 1587.09 c -75.81,0 -137.28,61.46 -137.28,137.28 0,75.82 61.47,137.28 137.28,137.28 h 1830.38 c 75.82,0 137.28,-61.46 137.28,-137.28 0,-75.82 -61.46,-137.28 -137.28,-137.28" /><path
         id="path18"
         style="fill:#fbc54c;fill-opacity:1;fill-rule:nonzero;stroke:none"
         d="m 4785.25,4850 h -228.8 c -75.81,0 -137.27,61.46 -137.27,137.28 0,75.82 61.46,137.28 137.27,137.28 h 228.8 c 75.82,0 137.29,-61.46 137.29,-137.28 0,-75.82 -61.47,-137.28 -137.29,-137.28" /><path
         id="path20"
         style="fill:#58a9f3;fill-opacity:1;fill-rule:nonzero;stroke:none"
         d="m 3983.26,4850 h -2.29 c -75.82,0 -137.28,61.46 -137.28,137.28 0,75.82 61.46,137.28 137.28,137.28 h 2.29 c 75.82,0 137.28,-61.46 137.28,-137.28 0,-75.82 -61.46,-137.28 -137.28,-137.28" /><path
         id="path22"
         style="fill:#ffffff;fill-opacity:1;fill-rule:nonzero;stroke:none"
         d="m 4309.13,4296.26 h -915.19 c -75.81,0 -137.28,61.46 -137.28,137.28 0,75.82 61.47,137.28 137.28,137.28 h 915.19 c 75.82,0 137.28,-61.46 137.28,-137.28 0,-75.82 -61.46,-137.28 -137.28,-137.28" /><path
         id="path24"
         style="fill:#da83f6;fill-opacity:1;fill-rule:nonzero;stroke:none"
         d="m 1587.09,4570.82 h 457.59 c 75.82,0 137.28,-61.46 137.28,-137.29 0,-75.81 -61.46,-137.27 -137.28,-137.27 h -457.59 c -75.82,0 -137.27,61.46 -137.27,137.27 0,75.83 61.45,137.29 137.27,137.29" /><path
         id="path26"
         style="fill:#fbc54c;fill-opacity:1;fill-rule:nonzero;stroke:none"
         d="m 2606.65,4570.82 h 228.8 c 75.81,0 137.27,-61.46 137.27,-137.29 0,-75.81 -61.46,-137.27 -137.27,-137.27 h -228.8 c -75.82,0 -137.28,61.46 -137.28,137.27 0,75.83 61.46,137.29 137.28,137.29" /><path
         id="path28"
         style="fill:#58a9f3;fill-opacity:1;fill-rule:nonzero;stroke:none"
         d="m 2452.88,4030.8 h 1830.38 c 75.81,0 137.28,-61.46 137.28,-137.28 0,-75.82 -61.47,-137.27 -137.28,-137.27 H 2452.88 c -75.82,0 -137.28,61.45 -137.28,137.27 0,75.82 61.46,137.28 137.28,137.28" /><path
         id="path30"
         style="fill:#fbc54c;fill-opacity:1;fill-rule:nonzero;stroke:none"
         d="m 1927.09,4030.8 h 2.3 c 75.81,0 137.27,-61.46 137.27,-137.28 0,-75.82 -61.46,-137.27 -137.27,-137.27 h -2.3 c -75.82,0 -137.27,61.45 -137.27,137.27 0,75.82 61.45,137.28 137.27,137.28" /><path
         id="path32"
         style="fill:#ffffff;fill-opacity:1;fill-rule:nonzero;stroke:none"
         d="m 2287.02,3463.34 h 457.59 c 75.82,0 137.28,-61.46 137.28,-137.29 0,-75.81 -61.46,-137.27 -137.28,-137.27 h -457.59 c -75.82,0 -137.28,61.46 -137.28,137.27 0,75.83 61.46,137.29 137.28,137.29" /><path
         id="path34"
         style="fill:#7be473;fill-opacity:1;fill-rule:nonzero;stroke:none"
         d="m 3539.95,3188.78 h -228.8 c -75.81,0 -137.28,61.46 -137.28,137.28 0,75.82 61.47,137.28 137.28,137.28 h 228.8 c 75.82,0 137.28,-61.46 137.28,-137.28 0,-75.82 -61.46,-137.28 -137.28,-137.28" /><path
         id="path36"
         style="fill:#ff685c;fill-opacity:1;fill-rule:nonzero;stroke:none"
         d="M 4226.39,3188.78 H 4112 c -75.82,0 -137.28,61.46 -137.28,137.28 0,75.82 61.46,137.28 137.28,137.28 h 114.39 c 75.82,0 137.28,-61.46 137.28,-137.28 0,-75.82 -61.46,-137.28 -137.28,-137.28" /><path
         id="path38"
         style="fill:#ff685c;fill-opacity:1;fill-rule:nonzero;stroke:none"
         d="M 9848.11,4850 H 8017.73 c -75.82,0 -137.28,61.46 -137.28,137.28 0,75.82 61.46,137.28 137.28,137.28 h 1830.38 c 75.8,0 137.28,-61.46 137.28,-137.28 0,-75.82 -61.48,-137.28 -137.28,-137.28" /><path
         id="path40"
         style="fill:#fbc54c;fill-opacity:1;fill-rule:nonzero;stroke:none"
         d="m 11215.9,4850 h -228.8 c -75.8,0 -137.3,61.46 -137.3,137.28 0,75.82 61.5,137.28 137.3,137.28 h 228.8 c 75.8,0 137.3,-61.46 137.3,-137.28 0,-75.82 -61.5,-137.28 -137.3,-137.28" /><path
         id="path42"
         style="fill:#58a9f3;fill-opacity:1;fill-rule:nonzero;stroke:none"
         d="m 10413.9,4850 h -2.3 c -75.8,0 -137.3,61.46 -137.3,137.28 0,75.82 61.5,137.28 137.3,137.28 h 2.3 c 75.8,0 137.3,-61.46 137.3,-137.28 0,-75.82 -61.5,-137.28 -137.3,-137.28" /><path
         id="path44"
         style="fill:#000000;fill-opacity:1;fill-rule:nonzero;stroke:none"
         d="m 10739.8,4296.26 h -915.23 c -75.81,0 -137.27,61.46 -137.27,137.28 0,75.82 61.46,137.28 137.27,137.28 h 915.23 c 75.8,0 137.2,-61.46 137.2,-137.28 0,-75.82 -61.4,-137.28 -137.2,-137.28" /><path
         id="path46"
         style="fill:#da83f6;fill-opacity:1;fill-rule:nonzero;stroke:none"
         d="m 8017.73,4570.82 h 457.59 c 75.82,0 137.27,-61.46 137.27,-137.29 0,-75.81 -61.45,-137.27 -137.27,-137.27 h -457.59 c -75.82,0 -137.28,61.46 -137.28,137.27 0,75.83 61.46,137.29 137.28,137.29" /><path
         id="path48"
         style="fill:#fbc54c;fill-opacity:1;fill-rule:nonzero;stroke:none"
         d="m 9037.29,4570.82 h 228.8 c 75.8,0 137.27,-61.46 137.27,-137.29 0,-75.81 -61.47,-137.27 -137.27,-137.27 h -228.8 c -75.83,0 -137.29,61.46 -137.29,137.27 0,75.83 61.46,137.29 137.29,137.29" /><path
         id="path50"
         style="fill:#58a9f3;fill-opacity:1;fill-rule:nonzero;stroke:none"
         d="m 8883.52,4030.8 h 1830.38 c 75.8,0 137.3,-61.46 137.3,-137.28 0,-75.82 -61.5,-137.27 -137.3,-137.27 H 8883.52 c -75.82,0 -137.28,61.45 -137.28,137.27 0,75.82 61.46,137.28 137.28,137.28" /><path
         id="path52"
         style="fill:#fbc54c;fill-opacity:1;fill-rule:nonzero;stroke:none"
         d="m 8357.73,4030.8 h 2.29 c 75.82,0 137.28,-61.46 137.28,-137.28 0,-75.82 -61.46,-137.27 -137.28,-137.27 h -2.29 c -75.81,0 -137.28,61.45 -137.28,137.27 0,75.82 61.47,137.28 137.28,137.28" /><path
         id="path54"
         style="fill:#000000;fill-opacity:1;fill-rule:nonzero;stroke:none"
         d="m 8717.66,3463.34 h 457.59 c 75.82,0 137.28,-61.46 137.28,-137.29 0,-75.81 -61.46,-137.27 -137.28,-137.27 h -457.59 c -75.82,0 -137.29,61.46 -137.29,137.27 0,75.83 61.47,137.29 137.29,137.29" /><path
         id="path56"
         style="fill:#7be473;fill-opacity:1;fill-rule:nonzero;stroke:none"
         d="m 9970.59,3188.78 h -228.8 c -75.83,0 -137.28,61.46 -137.28,137.28 0,75.82 61.45,137.28 137.28,137.28 h 228.8 c 75.81,0 137.31,-61.46 137.31,-137.28 0,-75.82 -61.5,-137.28 -137.31,-137.28" /><path
         id="path58"
         style="fill:#ff685c;fill-opacity:1;fill-rule:nonzero;stroke:none"
         d="m 10657,3188.78 h -114.4 c -75.8,0 -137.3,61.46 -137.3,137.28 0,75.82 61.5,137.28 137.3,137.28 h 114.4 c 75.8,0 137.3,-61.46 137.3,-137.28 0,-75.82 -61.5,-137.28 -137.3,-137.28" /><g
         transform="scale(10)"
         id="g60"><text
           id="text64"
           style="font-variant:normal;font-weight:normal;font-size:14px;font-family:Roboto;-inkscape-font-specification:Roboto-Regular;writing-mode:lr-tb;fill:#808080;fill-opacity:1;fill-rule:nonzero;stroke:none"
           transform="matrix(1,0,0,-1,248.393,146.989)"><tspan
             id="tspan62"
             y="0"
             x="0 10.157022 19.173023 28.469023 34.601021 43.617023 52.997021 57.862087 64.120087 73.234085 82.362091 91.658089 101.03809 105.91009 115.16409 121.29609 130.11609 135.95271 619.19202 629.34906 638.36505 647.66107 653.79303 662.80902 672.18903 677.05414 683.31213 692.42609 701.55414 710.8501 720.2301 725.10211 734.35614 740.21936 749.23535 758.36334 767.08539">Padrão fundo pretoPadrão fundo branco</tspan></text>
</g></g></g></svg>